<?xml version="1.0" standalone="no"?>
<!DOCTYPE svg PUBLIC "-//W3C//DTD SVG 20010904//EN"
 "http://www.w3.org/TR/2001/REC-SVG-20010904/DTD/svg10.dtd">
<svg version="1.0" xmlns="http://www.w3.org/2000/svg"
 width="640.000000pt" height="360.000000pt" viewBox="0 0 640.000000 360.000000"
 preserveAspectRatio="xMidYMid meet">

<g transform="translate(0.000000,360.000000) scale(0.100000,-0.100000)"
fill="#000000" stroke="none">
<path d="M1663 3164 l-53 -17 0 -78 c0 -44 1 -79 3 -80 1 0 65 -4 142 -8 153
-9 191 -21 222 -68 16 -24 19 -71 24 -488 11 -784 10 -1359 -2 -1417 -33 -156
-154 -277 -319 -319 l-51 -13 3 -80 3 -79 60 -33 60 -32 250 23 c138 13 329
31 425 40 96 9 190 18 208 21 l32 5 0 77 0 77 -77 28 c-43 15 -88 27 -101 27
-54 0 -114 53 -159 140 l-28 55 -6 335 c-10 477 -10 1230 -1 1230 4 0 41 -109
81 -242 41 -134 122 -398 181 -588 59 -190 156 -503 215 -696 l109 -352 75
-26 c76 -26 164 -33 205 -17 16 6 39 71 111 307 51 164 147 477 215 694 146
470 151 489 186 605 14 50 30 94 35 100 5 5 9 -273 9 -668 0 -721 0 -718 -48
-761 -14 -12 -48 -21 -104 -27 -46 -6 -102 -12 -125 -15 l-43 -5 0 -64 c0 -40
5 -67 13 -72 28 -18 155 -53 192 -53 22 0 153 11 290 25 138 13 351 34 475 45
124 12 226 22 227 24 1 1 4 30 7 64 4 51 2 64 -12 71 -28 15 -123 33 -202 40
l-75 6 3 945 c1 520 4 959 7 977 8 49 29 63 89 63 29 0 87 3 129 6 l77 7 0 68
c0 69 0 69 -27 69 -16 0 -196 9 -402 19 -337 18 -383 18 -465 5 -50 -8 -94
-18 -98 -22 -3 -4 -77 -232 -163 -507 -214 -682 -214 -682 -235 -752 -32 -107
-35 -107 -63 -13 -86 286 -305 1027 -373 1265 -15 50 -28 91 -29 93 -3 4 -709
41 -900 47 -121 4 -160 2 -202 -11z"/>
</g>
</svg>
