<?xml version="1.0" encoding="UTF-8"?>
<svg version="1.1" xmlns="http://www.w3.org/2000/svg" width="19" height="22">
<path d="M0 0 C1.9375 1.1875 1.9375 1.1875 3 3 C3.1875 5.6875 3.1875 5.6875 3 8 C3.99 8.33 4.98 8.66 6 9 C6 13.29 6 17.58 6 22 C-0.27 22 -6.54 22 -13 22 C-13 17.71 -13 13.42 -13 9 C-12.01 8.67 -11.02 8.34 -10 8 C-10.061875 7.236875 -10.12375 6.47375 -10.1875 5.6875 C-10 3 -10 3 -8.9375 1.1875 C-5.90624457 -0.67036623 -3.46577141 -0.37133265 0 0 Z M-5 3 C-5.33 4.65 -5.66 6.3 -6 8 C-4.35 8 -2.7 8 -1 8 C-1.33 6.35 -1.66 4.7 -2 3 C-2.99 3 -3.98 3 -5 3 Z " fill="#8E8E8E" transform="translate(13,0)"/>
</svg>
