<?xml version="1.0" encoding="UTF-8"?>
<svg version="1.1" xmlns="http://www.w3.org/2000/svg" width="20" height="21">
<path d="M0 0 C3.125 1.6875 3.125 1.6875 5 4 C5 5.65 5 7.3 5 9 C-1.6 9 -8.2 9 -15 9 C-15 4 -15 4 -13.125 1.6875 C-8.71567296 -0.6935366 -4.91054778 -0.79695775 0 0 Z " fill="#8E8E8E" transform="translate(15,12)"/>
<path d="M0 0 C3.625 0.25 3.625 0.25 5.5625 1.4375 C7.01218434 3.91049093 7.04817323 5.42884512 6.625 8.25 C5.5625 10.125 5.5625 10.125 3.625 11.25 C-2.70833333 10.91666667 -2.70833333 10.91666667 -5.375 8.25 C-4.68173643 0.34679529 -4.68173643 0.34679529 0 0 Z " fill="#8E8E8E" transform="translate(9.375,-0.25)"/>
</svg>
